Coordinates
version=1
nRows=5
nColumns=40
inDegrees=yes

Units are S.I. units (second, meters, Newtons, ...)
Angles are in degrees.

endheader
time	pelvis_tilt	pelvis_list	pelvis_rotation	pelvis_tx	pelvis_ty	pelvis_tz	hip_flexion_r	hip_adduction_r	hip_rotation_r	knee_angle_r	knee_angle_r_beta	ankle_angle_r	subtalar_angle_r	mtp_angle_r	hip_flexion_l	hip_adduction_l	hip_rotation_l	knee_angle_l	knee_angle_l_beta	ankle_angle_l	subtalar_angle_l	mtp_angle_l	lumbar_extension	lumbar_bending	lumbar_rotation	arm_flex_r	arm_add_r	arm_rot_r	elbow_flex_r	pro_sup_r	wrist_flex_r	wrist_dev_r	arm_flex_l	arm_add_l	arm_rot_l	elbow_flex_l	pro_sup_l	wrist_flex_l	wrist_dev_l
      2.20000000	      3.78727192	     -3.35438245	     -2.95719949	      0.47758933	      0.89423770	     -1.42490114	    -10.36358116	      4.45478770	    -14.77398026	    -18.35613305	     -0.32037496	     13.26271070	      6.68980119	     -7.48122820	     21.53192368	      5.96945570	     15.81476996	    -16.88247118	     -0.29465471	     -0.76433589	     -2.43214203	     -9.68200357	    -10.85559405	      3.71207044	      6.06324318	     17.93495081	    -13.18341835	     20.63386845	     23.76672622	     89.95437384	      0.00000000	      0.00000000	     -4.41794499	      8.08808038	    -15.94889527	     15.47479422	     89.95437384	      0.00000000	      0.00000000
      2.21000000	      3.42885844	     -3.36662984	     -3.13312443	      0.48695931	      0.89279954	     -1.42546590	    -10.43988208	      4.33652414	    -14.48957674	    -18.71844790	     -0.32669855	     13.22168879	      6.68875663	     -7.58299720	     21.79467914	      5.92232700	     16.24663891	    -14.97408338	     -0.26134706	     -0.54617053	     -3.03110805	     -9.62614579	    -10.60082380	      3.71268277	      6.14016807	     18.14222495	    -13.20861709	     20.44242011	     24.30518180	     89.95437384	      0.00000000	      0.00000000	     -4.85789725	      8.06581787	    -15.80370942	     15.37916296	     89.95437384	      0.00000000	      0.00000000
      2.22000000	      3.13167190	     -3.36958352	     -3.44513050	      0.49648348	      0.89151053	     -1.42594878	    -10.55068231	      4.13381034	    -14.16817892	    -19.16968891	     -0.33457419	     13.16410514	      6.66112199	     -7.65755481	     21.91489184	      5.89841738	     16.60200186	    -13.33750982	     -0.23278346	     -0.36505077	     -3.45362783	     -9.57064967	    -10.40160540	      3.69385266	      6.35795409	     18.32362875	    -13.24357707	     20.29815505	     24.77050270	     89.95437384	      0.00000000	      0.00000000	     -5.21651971	      7.98843186	    -15.69816099	     15.14453699	     89.95437384	      0.00000000	      0.00000000
      2.23000000	      3.09835928	     -3.13346400	     -3.88179451	      0.50657674	      0.89062854	     -1.42640681	    -10.92056003	      3.60102705	    -13.76549967	    -19.72611898	     -0.34428572	     13.24024098	      6.55239042	     -7.85270780	     21.58823272	      5.64668624	     17.26888841	    -11.88501826	     -0.20743270	     -0.45156049	     -3.55851405	     -9.43679734	    -10.42755805	      3.37419214	      6.66324394	     18.39658854	    -13.21416955	     19.99469537	     25.28233165	     89.95437384	      0.00000000	      0.00000000	     -5.51580651	      7.87807593	    -15.40248554	     14.79122030	     89.95437384	      0.00000000	      0.00000000
      2.24000000	      2.86141818	     -3.22933265	     -3.99915996	      0.51665046	      0.88938608	     -1.42710864	    -11.15500148	      3.53871094	    -13.60309400	    -20.08782674	     -0.35059872	     13.07584784	      6.44801668	     -7.80792252	     21.87972257	      5.75582929	     17.36890048	    -11.53982482	     -0.20140794	     -0.21554512	     -3.54013701	     -9.35888093	    -10.23477269	      3.47178490	      6.60525366	     18.51142160	    -13.13243337	     19.93087244	     25.58687201	     89.95437384	      0.00000000	      0.00000000	     -5.91899454	      7.81038844	    -15.39322229	     14.61334017	     89.95437384	      0.00000000	      0.00000000
